<?xml version="1.0" encoding="UTF-8" standalone="no"?>
<!-- Created with Inkscape (http://www.inkscape.org/) -->

<svg
   xmlns:dc="http://purl.org/dc/elements/1.1/"
   xmlns:cc="http://creativecommons.org/ns#"
   xmlns:rdf="http://www.w3.org/1999/02/22-rdf-syntax-ns#"
   xmlns:svg="http://www.w3.org/2000/svg"
   xmlns="http://www.w3.org/2000/svg"
   xmlns:xlink="http://www.w3.org/1999/xlink"
   xmlns:sodipodi="http://sodipodi.sourceforge.net/DTD/sodipodi-0.dtd"
   xmlns:inkscape="http://www.inkscape.org/namespaces/inkscape"
   version="1.2"
   width="640"
   height="640"
   id="svg2"
   inkscape:version="0.48.4 r9939"
   sodipodi:docname="mehrcal.svg">
  <sodipodi:namedview
     pagecolor="#ffffff"
     bordercolor="#666666"
     borderopacity="1"
     objecttolerance="10"
     gridtolerance="10"
     guidetolerance="10"
     inkscape:pageopacity="0"
     inkscape:pageshadow="2"
     inkscape:window-width="1314"
     inkscape:window-height="743"
     id="namedview47"
     showgrid="false"
     inkscape:zoom="0.89702957"
     inkscape:cx="292.62591"
     inkscape:cy="452.36158"
     inkscape:window-x="52"
     inkscape:window-y="0"
     inkscape:window-maximized="1"
     inkscape:current-layer="svg2" />
  <defs
     id="defs4">
    <linearGradient
       id="linearGradient3874">
      <stop
         id="stop3876"
         style="stop-color:#5d0000;stop-opacity:1"
         offset="0" />
      <stop
         id="stop3878"
         style="stop-color:#ffffff;stop-opacity:0.53913045"
         offset="1" />
    </linearGradient>
    <linearGradient
       id="linearGradient5448">
      <stop
         id="stop5450"
         style="stop-color:#000000;stop-opacity:1"
         offset="0" />
    </linearGradient>
    <linearGradient
       id="linearGradient5414">
      <stop
         id="stop5416"
         style="stop-color:#000000;stop-opacity:1"
         offset="0" />
    </linearGradient>
    <linearGradient
       x1="779.50781"
       y1="757.65985"
       x2="865.65625"
       y2="757.65985"
       id="linearGradient5452"
       xlink:href="#linearGradient5448"
       gradientUnits="userSpaceOnUse" />
    <linearGradient
       x1="779.50781"
       y1="757.65985"
       x2="865.65625"
       y2="757.65985"
       id="linearGradient5454"
       xlink:href="#linearGradient5448"
       gradientUnits="userSpaceOnUse" />
    <radialGradient
       cx="394.29688"
       cy="306.267"
       r="301.96741"
       fx="394.29688"
       fy="306.267"
       id="radialGradient3884"
       xlink:href="#linearGradient3874"
       gradientUnits="userSpaceOnUse"
       gradientTransform="matrix(1,0,0,0.64165944,0,109.74789)"
       spreadMethod="reflect" />
    <filter
       color-interpolation-filters="sRGB"
       id="filter4193">
      <feFlood
         result="flood"
         flood-color="rgb(0,0,0)"
         flood-opacity="0.7"
         id="feFlood4195" />
      <feComposite
         in2="SourceGraphic"
         operator="in"
         in="flood"
         result="composite1"
         id="feComposite4197" />
      <feGaussianBlur
         result="blur"
         stdDeviation="1.6"
         id="feGaussianBlur4199" />
      <feOffset
         result="offset"
         dy="0"
         dx="0"
         id="feOffset4201" />
      <feComposite
         in2="offset"
         operator="over"
         in="SourceGraphic"
         result="composite2"
         id="feComposite4203" />
    </filter>
  </defs>
  <metadata
     id="metadata7">
    <rdf:RDF>
      <cc:Work
         rdf:about="">
        <dc:format>image/svg+xml</dc:format>
        <dc:type
           rdf:resource="http://purl.org/dc/dcmitype/StillImage" />
        <dc:title />
      </cc:Work>
    </rdf:RDF>
  </metadata>
  <g
     id="layer1"
     style="display:inline"
     transform="translate(-78.521381,-113.66421)">
    <path
       d="m 716.57146,433.79075 c 0,175.15317 -141.9897,317.14287 -317.14287,317.14287 -175.15317,0 -317.142871,-141.9897 -317.142871,-317.14287 0,-175.15317 141.989701,-317.14286 317.142871,-317.14286 175.15317,0 317.14287,141.98969 317.14287,317.14286 z"
       id="path3796"
       style="fill:#d40000;fill-opacity:1;stroke:#ffffff;stroke-width:0.60000002;stroke-miterlimit:4;stroke-opacity:1;stroke-dasharray:none"
       inkscape:connector-curvature="0" />
  </g>
  <g
     id="layer4"
     transform="translate(-78.521381,-113.66421)">
    <path
       d="m 702.34872,434.07646 c 0,167.29817 -135.62197,302.92014 -302.92014,302.92014 -167.29818,0 -302.92014,-135.62197 -302.92014,-302.92014 0,-167.29817 135.62196,-302.92012 302.92014,-302.92012 167.29817,0 302.92014,135.62195 302.92014,302.92012 z"
       id="path3796-8"
       style="fill:#ff2a2a;fill-opacity:1;stroke:none;display:inline;filter:url(#filter4193)"
       inkscape:connector-curvature="0" />
  </g>
  <g
     id="layer2"
     style="display:none"
     transform="translate(0,-412.36215)">
    <flowRoot
       transform="matrix(4.1077598,0,0,5.194356,-3112.2304,-3628.907)"
       id="flowRoot3822"
       xml:space="preserve"
       style="font-size:40px;font-style:normal;font-weight:normal;line-height:125%;letter-spacing:0px;word-spacing:0px;fill:#fff7c6;fill-opacity:1;stroke:none;font-family:Sans"><flowRegion
         id="flowRegion3824"
         style="stroke:url(#linearGradient5452)"><rect
           width="820"
           height="465.71429"
           x="45.714287"
           y="663.79077"
           id="rect3826"
           style="fill:#fff7c6;fill-opacity:1;stroke:none" /></flowRegion><flowPara
         id="flowPara3828"
         style="font-size:144px;font-style:normal;font-variant:normal;font-weight:normal;font-stretch:normal;fill:#fff7c6;fill-opacity:1;stroke:none;font-family:IranNastaliq;-inkscape-font-specification:IranNastaliq">مهر</flowPara></flowRoot>    <flowRoot
       transform="matrix(-4.1077598,0,0,5.194356,3900.8019,-3628.9069)"
       id="flowRoot3822-5"
       xml:space="preserve"
       style="font-size:40px;font-style:normal;font-weight:normal;line-height:125%;letter-spacing:0px;word-spacing:0px;fill:#fff7c6;fill-opacity:1;stroke:none;font-family:Sans"><flowRegion
         id="flowRegion3824-8"
         style="stroke:url(#linearGradient5454)"><rect
           width="820"
           height="465.71429"
           x="45.714287"
           y="663.79077"
           id="rect3826-4"
           style="fill:#fff7c6;fill-opacity:1;stroke:none" /></flowRegion><flowPara
         id="flowPara3828-1"
         style="font-size:144px;font-style:normal;font-variant:normal;font-weight:normal;font-stretch:normal;fill:#fff7c6;fill-opacity:1;stroke:none;font-family:IranNastaliq;-inkscape-font-specification:IranNastaliq">مهر</flowPara></flowRoot>  </g>
  <g
     id="g5456"
     style="display:none"
     transform="translate(0,-412.36215)">
    <path
       d="m 392.9375,113.03125 c -0.12486,0.01 -0.2234,7.7e-4 -0.34375,0.0313 -12.13069,1.70455 -21.18711,3.65253 -27.15625,5.84375 -12.32321,4.62637 -18.49993,11.32841 -18.5,20.09375 7e-5,8.03514 1.36685,15.59529 4.0625,22.65625 2.50323,6.57421 5.56034,12.54967 9.21875,17.90625 1.92557,2.43494 7.80494,9.00547 17.625,19.71875 1.82376,1.98332 3.64139,4.07077 5.4375,6.28125 -6.71617,9.77607 -13.24584,20.78542 -19.5625,33.03125 -3.24098,-3.63988 -6.80883,-6.41231 -10.75,-8.28125 -5.19892,-2.6783 -12.23642,-3.99996 -21.09375,-4 -29.84543,4e-5 -59.29972,22.51771 -88.375,67.5625 l 0.375,0.0313 c -0.51224,0.71749 -1.01629,1.42159 -1.53125,2.15625 -5.19894,8.03509 -12.14775,19.72298 -20.8125,35.0625 0.84889,17.1737 55.17178,78.5535 21.65625,9.1249 13.0934,-20.20924 24.76344,-32.88674 34.96875,-38 1.58565,-0.92542 4.93367,-2.61282 9.6875,-4.90625 5.5667,-1.8695 12.25345,-2.9235 20.0625,-3.125 9.24246,-3e-5 16.8434,2.07947 22.8125,6.21875 6.16162,4.13922 8.86393,8.63025 8.09375,13.5 l -2.3125,14.25 c -1.54043,6.81753 -1.54043,10.71349 0,11.6875 2.88824,2.1913 6.45134,-2.43125 10.6875,-13.875 l 14.15625,-39.0625 7.78125,-17.90625 c 0.43656,-1.21455 0.85301,-2.51024 1.25,-3.875 2.09449,-4.66108 6.27508,-12.92432 12.625,-24.96875 3.69462,-7.0079 7.45261,-13.43733 11.28125,-19.34375 3.82864,5.90642 7.61788,12.33585 11.3125,19.34375 6.26861,11.89019 10.40978,20.08652 12.53125,24.78125 0.41402,1.43771 0.85502,2.78974 1.3125,4.0625 L 427.25,286.9375 441.40625,326 c 4.23616,11.44375 7.79926,16.0663 10.6875,13.875 1.54043,-0.97401 1.54043,-4.86997 0,-11.6875 l -2.3125,-14.25 c -0.77018,-4.86975 1.90088,-9.36078 8.0625,-13.5 5.9691,-4.13928 13.60129,-6.21878 22.84375,-6.21875 7.81725,0.20172 14.49231,1.25178 20.0625,3.125 4.74626,2.28992 8.10337,3.98172 9.6875,4.90625 10.20531,5.11326 21.8441,17.79076 34.9375,38 -10.62715,50.62168 36.43734,-34.84529 21.65625,-9.125 -8.66475,-15.33952 -15.58231,-27.02741 -20.78125,-35.0625 -0.51303,-0.73191 -1.02091,-1.44138 -1.53125,-2.15625 l 0.375,-0.0313 c -29.07528,-45.04479 -58.56082,-67.56246 -88.40625,-67.5625 -8.85733,4e-5 -15.86358,1.3217 -21.0625,4 -3.94117,1.86894 -7.54027,4.64137 -10.78125,8.28125 -6.32123,-12.2547 -12.80993,-23.28115 -19.53125,-33.0625 1.78711,-2.19807 3.59179,-4.27678 5.40625,-6.25 9.82006,-10.71328 15.69943,-17.28381 17.625,-19.71875 3.65841,-5.35658 6.74677,-11.33204 9.25,-17.90625 2.69565,-7.06096 4.03118,-14.62111 4.03125,-22.65625 -7e-5,-8.76534 -6.17679,-15.46738 -18.5,-20.09375 -5.96914,-2.19122 -14.99431,-4.1392 -27.125,-5.84375 -0.52744,-0.13335 -1.10463,-0.0186 -1.71875,0.25 -0.47225,-0.20579 -0.9228,-0.31329 -1.34375,-0.28125 z"
       transform="matrix(1,0,0,-1,2.8571446e-8,715.39116)"
       id="path5477"
       style="font-size:40px;font-style:normal;font-weight:normal;line-height:125%;letter-spacing:0px;word-spacing:0px;fill:#710000;fill-opacity:1;stroke:none;font-family:Sans"
       inkscape:connector-curvature="0" />
  </g>
  <g
     id="layer3"
     style="display:inline"
     transform="translate(-78.521381,-113.66421)">
    <path
       d="m 368.00671,324.95741 c -3.12881,-3.15218 -6.51225,-5.49888 -10.19079,-7.00502 -4.863,-2.18054 -11.33206,-3.03586 -19.39187,-2.59873 -27.15812,1.47308 -52.84893,23.41699 -77.08302,65.84093 l 0.34278,0.01 c -0.4307,0.67817 -0.85461,1.34375 -1.28695,2.03767 -4.33424,7.5682 -10.0805,18.54667 -17.20798,32.93266 -12.4599,26.2304 -20.69462,42.76874 -24.71442,49.65317 -5.60372,10.08133 -10.14857,17.2275 -13.61174,21.41521 -3.04064,5.49801 -8.31096,13.22662 -15.85405,23.19098 -2.59911,3.91855 -10.69921,13.45842 -24.28562,28.63929 l -20.98377,21.15902 c -1.65593,1.86742 -3.16776,3.48718 -4.49744,4.89268 -1.31752,1.62685 -2.46602,2.92385 -3.4693,3.86723 -1.6319,2.31054 -1.95631,4.31746 -0.98417,6.04256 1.99952,1.22472 4.86114,0.52642 8.58359,-2.11973 4.4114,-2.90594 10.99065,-7.4815 19.78926,-13.73618 6.09142,-4.33034 11.58246,-8.51533 16.45934,-12.55738 21.06746,-19.80871 39.67232,-44.50081 55.81867,-74.04209 7.86439,-13.75938 17.1644,-30.14396 27.90632,-49.17034 10.91701,-19.03582 20.91056,-31.14781 29.9446,-36.30436 1.39721,-0.92035 4.36048,-2.62106 8.57308,-4.94262 4.9732,-1.97592 11.00584,-3.26504 18.10181,-3.83382 8.41026,-0.4562 15.42944,1.06091 21.06537,4.53287 5.81112,3.46241 8.49177,7.41569 8.03129,11.88497 l -1.40096,13.08105 c -1.06524,6.2797 -0.87295,9.82487 0.57685,10.63515 2.73633,1.85144 5.75046,-2.53075 9.04037,-13.15317 l 10.95364,-36.24397 c 4.49767,-22.48248 -13.91933,-34.36754 -0.22489,-44.10801 z"
       id="path5481-1"
       style="font-size:40px;font-style:normal;font-weight:normal;line-height:125%;letter-spacing:0px;word-spacing:0px;fill:#dd1200;fill-opacity:1;stroke:none;font-family:Sans"
       inkscape:connector-curvature="0" />
  </g>
  <g
     id="g3847"
     transform="translate(-78.521381,-113.66421)">
    <path
       d="m 431.05064,325.10027 c 3.12881,-3.15218 6.51224,-5.49888 10.19079,-7.00502 4.86299,-2.18055 11.33206,-3.03586 19.39187,-2.59874 27.15811,1.47309 52.84893,23.41699 77.08301,65.84094 l -0.34278,0.01 c 0.43071,0.67817 0.85462,1.34375 1.28695,2.03768 4.33425,7.5682 10.08051,18.54666 17.20798,32.93266 12.45991,26.23039 20.69463,42.76873 24.71443,49.65317 5.60372,10.08132 10.14857,17.22749 13.61174,21.41521 3.04064,5.49801 8.31096,13.22662 15.85405,23.19098 2.59911,3.91855 10.69921,13.45842 24.28562,28.63929 l 20.98376,21.15901 c 1.65594,1.86742 3.16777,3.48718 4.49744,4.89268 1.31753,1.62685 2.46603,2.92386 3.46931,3.86724 1.63189,2.31054 1.95631,4.31746 0.98417,6.04255 -1.99953,1.22472 -4.86115,0.52642 -8.58359,-2.11972 -4.4114,-2.90594 -10.99066,-7.4815 -19.78926,-13.73619 -6.09142,-4.33033 -11.58247,-8.51532 -16.45934,-12.55738 -21.06746,-19.8087 -39.67232,-44.5008 -55.81868,-74.04208 -7.86438,-13.75938 -17.16439,-30.14396 -27.90631,-49.17034 -10.91702,-19.03582 -20.91056,-31.14781 -29.94461,-36.30436 -1.3972,-0.92036 -4.36048,-2.62107 -8.57307,-4.94262 -4.9732,-1.97592 -11.00585,-3.26505 -18.10182,-3.83383 -8.41025,-0.4562 -15.42943,1.06091 -21.06537,4.53288 -5.81111,3.4624 -8.49176,7.41568 -8.03128,11.88497 l 1.40095,13.08105 c 1.06525,6.2797 0.87296,9.82486 -0.57684,10.63514 -2.73634,1.85144 -5.75046,-2.53075 -9.04038,-13.15317 L 430.82574,369.2083 c -4.49766,-22.48248 13.91934,-34.36754 0.2249,-44.108 z"
       id="path3849"
       style="font-size:40px;font-style:normal;font-weight:normal;line-height:125%;letter-spacing:0px;word-spacing:0px;fill:#dd1200;fill-opacity:1;stroke:none;font-family:Sans"
       inkscape:connector-curvature="0" />
  </g>
  <g
     id="g3851"
     transform="translate(0,-412.36215)" />
  <g
     id="g3841"
     transform="translate(-78.521381,-113.66421)">
    <path
       d="m 258.52246,390.40968 0.33929,-0.0498 c -0.30617,0.74275 -0.60784,1.47193 -0.91287,2.23048 -2.95166,8.20677 -6.7006,20.01743 -11.21694,35.42393 -7.70711,27.99792 -12.93941,45.71656 -15.70037,53.19529 -3.76462,10.9024 -6.99709,18.73021 -9.679,23.4565 -2.03789,5.94312 -5.88346,14.47068 -11.57823,25.59526 -1.87784,4.31093 -8.19497,15.11438 -18.93351,32.42719 l -16.9832,24.48659 c -1.30585,2.127 -2.51287,3.98505 -3.57778,5.60042 -1.01444,1.83124 -1.91982,3.30826 -2.7437,4.41177 -1.20509,2.55919 -1.17545,4.59194 0.082,6.12163 2.18208,0.85823 4.8786,-0.32721 8.08399,-3.58053 3.83866,-3.62901 9.52168,-9.27929 17.09813,-16.96915 5.24527,-5.32393 9.92462,-10.40029 14.02402,-15.22907 17.30051,-23.17142 31.32649,-50.72342 42.08791,-82.62301 5.35102,-14.91763 11.65912,-32.67017 18.9276,-53.27505 7.43925,-20.64464 15.17354,-34.31037 23.17286,-40.95979 1.2158,-1.14937 3.83806,-3.33962 7.58259,-6.35857 4.55366,-2.81089 10.27009,-5.12975 17.15894,-6.92422 8.20268,-1.91222 15.37875,-1.63924 21.53271,0.79941 6.32482,2.39877 9.65228,5.82547 9.97626,10.30672 l 0.89587,13.12532 c 0.0434,6.36926 0.84941,9.82693 2.41806,10.37266 3.01667,1.34722 5.22256,-3.49247 6.61452,-14.52523 l 4.48194,-37.59681 c -1.31806,-28.92566 -42.04125,-30.38347 -103.15104,30.53807 z"
       id="path3843"
       style="font-size:40px;font-style:normal;font-weight:normal;line-height:125%;letter-spacing:0px;word-spacing:0px;fill:#ab0000;fill-opacity:1;stroke:none;font-family:Sans"
       inkscape:connector-curvature="0" />
  </g>
  <g
     id="g3866"
     transform="translate(-78.521381,-113.66421)">
    <path
       d="m 539.23288,389.55253 -0.33929,-0.0498 c 0.30617,0.74275 0.60784,1.47193 0.91287,2.23048 2.95166,8.20677 6.7006,20.01743 11.21694,35.42393 7.70711,27.99792 12.93941,45.71656 15.70037,53.19529 3.76462,10.9024 6.99709,18.73021 9.679,23.4565 2.03789,5.94312 5.88346,14.47068 11.57823,25.59526 1.87784,4.31093 8.19497,15.11438 18.93351,32.42719 l 16.9832,24.48659 c 1.30585,2.127 2.51287,3.98505 3.57778,5.60042 1.01444,1.83124 1.91982,3.30826 2.7437,4.41177 1.20509,2.55919 1.17545,4.59194 -0.082,6.12163 -2.18208,0.85823 -4.8786,-0.32721 -8.08399,-3.58053 -3.83866,-3.62901 -9.52168,-9.27929 -17.09813,-16.96915 -5.24527,-5.32393 -9.92462,-10.40029 -14.02402,-15.22907 -17.30051,-23.17142 -31.32649,-50.72342 -42.08791,-82.62301 -5.35102,-14.91763 -11.65912,-32.67017 -18.9276,-53.27505 -7.43925,-20.64464 -15.17354,-34.31037 -23.17286,-40.95979 -1.2158,-1.14937 -3.83806,-3.33962 -7.58259,-6.35857 -4.55366,-2.81089 -10.27009,-5.12975 -17.15894,-6.92422 -8.20268,-1.91222 -15.37875,-1.63924 -21.53271,0.79941 -6.32482,2.39877 -9.65228,5.82547 -9.97626,10.30672 l -0.89587,13.12532 c -0.0434,6.36926 -0.84941,9.82693 -2.41806,10.37266 -3.01667,1.34722 -5.22256,-3.49247 -6.61452,-14.52523 l -4.48194,-37.59681 c 1.31806,-28.92566 42.04125,-30.38347 103.15104,30.53807 z"
       id="path3868"
       style="font-size:40px;font-style:normal;font-weight:normal;line-height:125%;letter-spacing:0px;word-spacing:0px;fill:#ab0000;fill-opacity:1;stroke:none;font-family:Sans"
       inkscape:connector-curvature="0" />
  </g>
  <g
     id="g5479"
     style="display:inline"
     transform="translate(-78.521381,-113.66421)">
    <path
       d="m 392.9375,113.03125 c -0.12486,0.01 -0.2234,7.7e-4 -0.34375,0.0313 -12.13069,1.70455 -21.18711,3.65253 -27.15625,5.84375 -12.32321,4.62637 -18.49993,11.32841 -18.5,20.09375 7e-5,8.03514 1.36685,15.59529 4.0625,22.65625 2.50323,6.57421 5.56034,12.54967 9.21875,17.90625 1.92557,2.43494 7.80494,9.00547 17.625,19.71875 1.82376,1.98332 3.64139,4.07077 5.4375,6.28125 -6.71617,9.77607 -13.24584,20.78542 -19.5625,33.03125 -3.24098,-3.63988 -6.80883,-6.41231 -10.75,-8.28125 -5.19892,-2.6783 -12.23642,-3.99996 -21.09375,-4 -29.84543,4e-5 -59.29972,22.51771 -88.375,67.5625 l 0.375,0.0313 c -0.51224,0.71749 -1.01629,1.42159 -1.53125,2.15625 -5.19894,8.03509 -12.14775,19.72298 -20.8125,35.0625 -15.21158,28.00084 -25.21749,45.63294 -30.03125,52.9375 -6.7393,10.71334 -12.14393,18.27348 -16.1875,22.65625 -3.65847,5.84361 -9.89263,13.99883 -18.75,24.46875 -3.0808,4.13919 -12.52327,14.11088 -28.3125,29.9375 L 104,483.0625 c -1.92544,1.94777 -3.67826,3.63273 -5.21875,5.09375 -1.540331,1.70428 -2.875863,3.05719 -4.03125,4.03125 -1.925429,2.43473 -2.400173,4.61449 -1.4375,6.5625 2.118144,1.46079 5.2952,0.86572 9.53125,-1.8125 5.0064,-2.92194 12.4874,-7.54449 22.5,-13.875 6.93189,-4.38284 13.1973,-8.6421 18.78125,-12.78125 24.26146,-20.45285 46.11481,-46.40293 65.5625,-77.8125 9.43497,-14.60913 20.59901,-32.00944 33.5,-52.21875 13.0934,-20.20924 24.76344,-32.88674 34.96875,-38 1.58565,-0.92542 4.93367,-2.61282 9.6875,-4.90625 5.5667,-1.8695 12.25345,-2.9235 20.0625,-3.125 9.24246,-3e-5 16.8434,2.07947 22.8125,6.21875 6.16162,4.13922 8.86393,8.63025 8.09375,13.5 l -2.3125,14.25 c -1.54043,6.81753 -1.54043,10.71349 0,11.6875 2.88824,2.1913 6.45134,-2.43125 10.6875,-13.875 l 14.15625,-39.0625 7.78125,-17.90625 c 0.43656,-1.21455 0.85301,-2.51024 1.25,-3.875 2.09449,-4.66108 6.27508,-12.92432 12.625,-24.96875 3.69462,-7.0079 7.45261,-13.43733 11.28125,-19.34375 3.82864,5.90642 7.61788,12.33585 11.3125,19.34375 6.26861,11.89019 10.40978,20.08652 12.53125,24.78125 0.41402,1.43771 0.85502,2.78974 1.3125,4.0625 L 427.25,286.9375 441.40625,326 c 4.23616,11.44375 7.79926,16.0663 10.6875,13.875 1.54043,-0.97401 1.54043,-4.86997 0,-11.6875 l -2.3125,-14.25 c -0.77018,-4.86975 1.90088,-9.36078 8.0625,-13.5 5.9691,-4.13928 13.60129,-6.21878 22.84375,-6.21875 7.81725,0.20172 14.49231,1.25178 20.0625,3.125 4.74626,2.28992 8.10337,3.98172 9.6875,4.90625 10.20531,5.11326 21.8441,17.79076 34.9375,38 12.90099,20.20931 24.06503,37.60962 33.5,52.21875 19.44769,31.40957 41.30104,57.35965 65.5625,77.8125 5.58395,4.13915 11.84936,8.39841 18.78125,12.78125 10.0126,6.33051 17.52485,10.95306 22.53125,13.875 4.23605,2.67822 7.41311,3.27329 9.53125,1.8125 0.96267,-1.94801 0.48793,-4.12777 -1.4375,-6.5625 -1.15539,-0.97406 -2.52217,-2.32697 -4.0625,-4.03125 -1.54049,-1.46102 -3.26206,-3.14598 -5.1875,-5.09375 L 660.3125,461.125 c -15.78923,-15.82662 -25.20045,-25.79831 -28.28125,-29.9375 -8.85737,-10.46992 -15.12278,-18.62514 -18.78125,-24.46875 -4.04357,-4.38277 -9.4482,-11.94291 -16.1875,-22.65625 -4.81376,-7.30456 -14.81967,-24.93666 -30.03125,-52.9375 -8.66475,-15.33952 -15.58231,-27.02741 -20.78125,-35.0625 -0.51303,-0.73191 -1.02091,-1.44138 -1.53125,-2.15625 l 0.375,-0.0313 c -29.07528,-45.04479 -58.56082,-67.56246 -88.40625,-67.5625 -8.85733,4e-5 -15.86358,1.3217 -21.0625,4 -3.94117,1.86894 -7.54027,4.64137 -10.78125,8.28125 -6.32123,-12.2547 -12.80993,-23.28115 -19.53125,-33.0625 1.78711,-2.19807 3.59179,-4.27678 5.40625,-6.25 9.82006,-10.71328 15.69943,-17.28381 17.625,-19.71875 3.65841,-5.35658 6.74677,-11.33204 9.25,-17.90625 2.69565,-7.06096 4.03118,-14.62111 4.03125,-22.65625 -7e-5,-8.76534 -6.17679,-15.46738 -18.5,-20.09375 -5.96914,-2.19122 -14.99431,-4.1392 -27.125,-5.84375 -0.52744,-0.13335 -1.10463,-0.0186 -1.71875,0.25 -0.47225,-0.20579 -0.9228,-0.31329 -1.34375,-0.28125 z"
       transform="matrix(0.91129652,0,0,0.91129652,39.662866,107.45266)"
       id="path5481"
       style="font-size:40px;font-style:normal;font-weight:normal;line-height:125%;letter-spacing:0px;word-spacing:0px;fill:#fff7c6;fill-opacity:1;stroke:url(#radialGradient3884);stroke-opacity:1;font-family:Sans"
       inkscape:connector-curvature="0" />
  </g>
</svg>
